<?xml version="1.0" encoding="UTF-8"?>
<svg width="91px" height="92px" viewBox="0 0 91 92" version="1.1" xmlns="http://www.w3.org/2000/svg" xmlns:xlink="http://www.w3.org/1999/xlink">
    <title>iconlogo</title>
    <g id="Page-1" stroke="none" stroke-width="1" fill="none" fill-rule="evenodd">
        <g id="E.V.Yönetim-Paneli_2" transform="translate(-506.000000, -92.000000)">
            <g id="logo" transform="translate(506.000000, 92.265000)">
                <g id="iconlogo" transform="translate(0.545728, 0.583200)">
                    <path d="M89.0570722,37.201 C87.5240722,27.199 82.7070722,18.934 75.4100722,12.046 C74.8890722,11.555 74.8530722,11.532 74.8180722,11.591 C71.7840722,16.631 70.0660722,19.831 67.9610722,23.549 C67.7100722,23.991 67.3510722,24.55 67.0550722,25.095 C72.2550722,30.58 75.4540722,37.979 75.4540722,46.116 C75.4540722,62.981 61.7330722,76.702 44.8670722,76.702 C28.0010722,76.702 14.2800722,62.981 14.2800722,46.116 C14.2800722,37.827 17.5990722,30.303 22.9710722,24.789 C22.7690722,24.322 22.4110722,23.811 22.1610722,23.322 C20.0540722,19.21 17.9970722,15.072 15.7090722,10.521 C13.7760722,12.582 11.8970722,14.274 10.3840722,16.247 C1.82507222,27.418 -1.81092778,39.864 0.864072221,53.918 C3.00807222,65.186 8.64107222,74.417 17.7180722,81.211 C27.9210722,88.848 39.5520722,91.629 52.2430722,89.559 C67.0810722,87.14 77.8540722,79.051 84.9320722,65.943 C89.8090722,56.911 90.5870722,47.181 89.0570722,37.201" id="Fill-84" fill="#333785"></path>
                    <path d="M57.2831189,43.1857 C57.2881722,43.2817 68.2221722,43.2137 70.8321722,43.2917 C70.2591722,37.9967 68.1061722,33.1707 64.8551722,29.2917 C64.8171722,29.3637 64.7781722,29.4377 64.7341722,29.5237 C63.0331722,32.4737 60.7221722,36.6407 59.1251722,39.6227 C58.1681722,41.4107 57.2751722,43.0477 57.2831189,43.1857" id="Fill-85" fill="#333785"></path>
                    <path d="M32.2660722,43.1361 C30.0310722,38.6201 27.5470722,33.5381 25.4290722,29.4391 C25.2760722,29.1431 25.1490722,28.9241 25.0250722,28.7931 C22.4730722,31.7391 20.5640722,35.2531 19.5180722,39.1211 C19.4800722,39.2691 19.4360722,39.4141 19.4000722,39.5631 C19.3800722,39.6431 19.3640722,39.7251 19.3440722,39.8051 C19.0970722,40.8871 18.9090722,41.9951 18.7920722,43.1361 L32.2660722,43.1361 Z" id="Fill-86" fill="#333785"></path>
                    <path d="M57.3525722,48.0306 L54.7055722,48.0306 C54.2695722,48.7266 53.8405722,49.5186 53.6445722,49.8946 C50.7005722,55.5406 47.6845722,61.1496 44.5525722,67.0396 C41.5395722,61.1796 38.6895722,55.5906 35.7835722,50.0306 C35.6405722,49.7576 35.1285722,48.7876 34.7065722,48.0306 L33.0445722,48.0306 C29.3435722,48.1216 24.6175722,48.0626 20.4785722,48.0306 L18.6675722,48.0306 C19.6535722,61.6276 31.0225722,72.3926 44.8675722,72.3926 C58.6975722,72.3926 70.0575722,61.6506 71.0635722,48.0726 C66.4955722,48.0046 61.9215722,48.1086 57.3525722,48.0306" id="Fill-87" fill="#333785"></path>
                    <path d="M44.9682722,15.555 C51.9112722,15.555 58.3182722,17.884 63.4582722,21.797 L70.8272722,8.207 C63.4992722,3.043 54.5682722,0 44.9222722,0 C35.4282722,0 26.6272722,2.944 19.3642722,7.96 L26.4602722,21.811 C31.6032722,17.89 38.0172722,15.555 44.9682722,15.555" id="Fill-88" fill="#9E7CB1"></path>
                    <polygon id="Fill-89" fill="#9E7CB1" points="39.8539722 47.9571 44.4299722 56.8891 49.2729722 47.9571"></polygon>
                    <path d="M51.8871722,43.1361 L61.3751722,25.6391 C56.8751722,22.0311 51.1711722,19.8651 44.9681722,19.8651 C38.7201722,19.8651 32.9761722,22.0621 28.4611722,25.7181 L37.3841722,43.1361 L51.8871722,43.1361 Z" id="Fill-90" fill="#9E7CB1"></path>
                </g>
            </g>
        </g>
    </g>
</svg>