<?xml version="1.0" encoding="UTF-8"?>
<svg width="262px" height="84px" viewBox="0 0 262 84" version="1.1" xmlns="http://www.w3.org/2000/svg" xmlns:xlink="http://www.w3.org/1999/xlink">
    <title>logobeyaz</title>
    <g id="Page-6" stroke="none" stroke-width="1" fill="none" fill-rule="evenodd">
        <g id="estetikvitrini" transform="translate(-54.000000, -365.000000)" fill="#FFFFFF">
            <g id="Group-75" transform="translate(54.000000, 365.000000)">
                <g id="logobeyaz" transform="translate(0.842098, 0.431300)">
                    <path d="M114.028702,21.846 C117.235702,23.575 119.076702,26.26 119.652702,30.054 L96.7307018,30.054 C96.8877018,28.924 97.1787018,27.909 97.6127018,26.973 C99.3187018,23.29 102.168702,21.213 106.326702,20.624 C109.182702,20.219 111.773702,20.631 114.028702,21.846 L114.028702,21.846 Z M122.635702,31.388 C122.605702,30.972 122.575702,30.584 122.532702,30.196 C122.059702,25.902 120.112702,22.558 116.748702,20.257 C113.428702,17.987 109.580702,17.234 105.308702,18.017 C99.6037018,19.066 95.8927018,22.4 94.2767018,27.929 C94.1227018,28.455 94.0187018,28.989 93.9187018,29.504 C93.8747018,29.733 93.8297018,29.962 93.7807018,30.189 L93.7647018,33.513 L93.7837018,33.681 C93.8547018,33.984 93.9177018,34.289 93.9817018,34.594 C94.1237018,35.283 94.2707018,35.994 94.5087018,36.688 C96.2327018,41.711 99.8587018,44.796 105.286702,45.855 L106.480702,46.088 L109.865702,46.102 L110.368702,46.011 C110.666702,45.958 110.963702,45.905 111.259702,45.847 C115.888702,44.944 119.238702,42.463 121.215702,38.472 C121.286702,38.33 121.345702,38.181 121.412702,38.012 L121.919702,36.77 L120.821702,36.77 C120.720702,36.77 120.629702,36.773 120.545702,36.776 C120.429702,36.78 120.330702,36.783 120.270702,36.774 C119.405702,36.642 118.773702,36.991 118.338702,37.829 C117.497702,39.448 116.224702,40.765 114.554702,41.743 C112.209702,43.115 109.522702,43.606 106.339702,43.249 C101.929702,42.751 98.3117018,39.702 97.1217018,35.482 C96.8387018,34.475 96.6887018,33.615 96.6577018,32.782 L122.747702,32.782 L122.635702,31.388 Z" id="Fill-43"></path>
                    <path d="M174.755302,30.0472 C174.920302,28.8562 175.232302,27.7942 175.702302,26.8192 C177.415302,23.2722 180.326302,21.1872 184.354302,20.6232 C187.234302,20.2202 189.737302,20.6132 192.007302,21.8232 C195.238302,23.5462 197.094302,26.2362 197.677302,30.0472 L174.755302,30.0472 Z M200.735302,31.9642 C200.703302,31.6672 200.675302,31.3772 200.649302,31.0932 C200.590302,30.4702 200.535302,29.8812 200.431302,29.2822 C199.673302,24.8792 197.362302,21.5912 193.562302,19.5132 C190.809302,18.0082 187.654302,17.4592 184.187302,17.8792 C180.176302,18.3642 176.979302,20.1192 174.681302,23.0962 C172.314302,26.1632 171.384302,29.7852 171.917302,33.8612 C172.679302,39.6842 175.909302,43.5732 181.516302,45.4212 C182.202302,45.6472 182.907302,45.7792 183.588302,45.9072 C183.890302,45.9642 184.192302,46.0202 184.491302,46.0852 L187.892302,46.1022 L188.395302,46.0112 C188.692302,45.9582 188.989302,45.9042 189.285302,45.8472 C193.915302,44.9442 197.265302,42.4632 199.242302,38.4722 C199.312302,38.3312 199.371302,38.1832 199.437302,38.0142 L199.946302,36.7702 L198.848302,36.7702 C198.747302,36.7702 198.655302,36.7732 198.571302,36.7762 C198.456302,36.7802 198.356302,36.7832 198.297302,36.7742 C197.434302,36.6432 196.800302,36.9902 196.364302,37.8292 C195.524302,39.4482 194.251302,40.7652 192.580302,41.7432 C190.235302,43.1152 187.547302,43.6082 184.364302,43.2492 C179.954302,42.7512 176.337302,39.7022 175.148302,35.4822 C174.864302,34.4762 174.715302,33.6152 174.684302,32.7802 L200.825302,32.7802 L200.735302,31.9642 Z" id="Fill-45"></path>
                    <path d="M141.343702,31.4344 C139.554702,31.0334 137.718702,30.7714 135.942702,30.5184 C135.239702,30.4184 134.537702,30.3194 133.836702,30.2104 L133.624702,30.1784 C132.229702,29.9634 130.912702,29.7614 129.727702,29.1364 C128.782702,28.6394 128.231702,27.9264 128.043702,26.9574 C127.558702,24.4584 128.715702,22.2894 131.061702,21.2974 C133.823702,20.1284 136.646702,20.1364 139.450702,21.3204 C141.111702,22.0214 142.124702,23.2844 142.462702,25.0724 C142.718702,26.4284 143.054702,26.6844 144.460702,26.5924 C144.600702,26.5844 144.705702,26.5464 144.816702,26.5084 L145.302702,26.3624 L145.346702,25.7724 C145.359702,25.6564 145.367702,25.5414 145.362702,25.4264 C145.350702,25.2084 145.329702,25.0104 145.298702,24.8204 C144.833702,22.0174 143.200702,19.9804 140.445702,18.7644 C138.122702,17.7384 135.574702,17.4784 132.657702,17.9684 C130.227702,18.3764 128.352702,19.3594 126.925702,20.9714 C125.169702,22.9564 124.543702,25.5124 125.250702,27.8084 C125.939702,30.0444 127.744702,31.6844 130.202702,32.3094 C131.594702,32.6634 133.031702,32.8514 134.420702,33.0334 C135.296702,33.1474 136.203702,33.2674 137.076702,33.4244 C138.494702,33.6824 139.961702,33.9484 141.303702,34.4644 C142.772702,35.0294 143.509702,36.4064 143.274702,38.1484 C142.977702,40.3434 141.757702,41.8244 139.543702,42.6764 C136.737702,43.7544 133.866702,43.7474 131.008702,42.6534 C129.093702,41.9194 127.913702,40.7094 127.403702,38.9524 C127.326702,38.6894 127.277702,38.4054 127.224702,38.1034 C127.197702,37.9504 127.170702,37.7954 127.139702,37.6414 L127.021702,37.0484 L124.072702,37.0484 L124.281702,37.9514 C124.338702,38.1914 124.384702,38.4294 124.430702,38.6624 C124.533702,39.1834 124.640702,39.7224 124.835702,40.2404 C125.835702,42.9014 127.900702,44.6484 131.148702,45.5804 C131.706702,45.7404 132.271702,45.8454 132.818702,45.9474 C133.059702,45.9924 133.301702,46.0374 133.540702,46.0864 L136.944702,46.1024 L137.018702,46.0864 C137.254702,46.0374 137.490702,45.9914 137.726702,45.9464 C138.254702,45.8444 138.801702,45.7384 139.341702,45.5874 C142.004702,44.8444 143.876702,43.5224 145.067702,41.5454 C146.126702,39.7854 146.446702,37.8784 146.016702,35.8794 C145.521702,33.5784 143.862702,31.9994 141.343702,31.4344" id="Fill-47"></path>
                    <path d="M169.671802,34.4793 L167.106802,34.4793 L167.050802,35.1553 C167.029802,35.4233 167.012802,35.6863 166.996802,35.9463 C166.962802,36.4823 166.930802,36.9883 166.855802,37.4773 C166.403802,40.4003 164.908802,42.2033 162.283802,42.9903 C160.549802,43.5093 158.746802,43.5423 156.924802,43.0863 C154.473802,42.4743 152.913802,40.9723 152.289802,38.6243 C152.021802,37.6113 151.873802,36.5163 151.862802,35.4563 C151.827802,31.9343 151.833802,28.3503 151.838802,24.8833 C151.840802,23.6203 151.842802,22.3563 151.842802,21.0923 L168.306802,21.0923 L168.306802,18.4373 L151.828802,18.4373 L151.828802,9.4663 L148.986802,9.4663 L148.986802,16.6203 C148.984802,22.7413 148.983802,28.8623 148.996802,34.9823 C148.998802,36.2083 149.071802,37.1933 149.224802,38.0813 C149.901802,42.0063 152.113802,44.5443 155.797802,45.6243 C156.254802,45.7573 156.716802,45.8553 157.162802,45.9513 C157.364802,45.9943 157.566802,46.0373 157.767802,46.0833 L160.965802,46.1023 L161.226802,46.0343 C161.314802,46.0103 161.401802,45.9843 161.492802,45.9703 C164.715802,45.4533 166.966802,43.9833 168.373802,41.4773 C169.400802,39.6473 169.836802,37.5853 169.708802,35.1753 L169.671802,34.4793 Z" id="Fill-49"></path>
                    <path d="M223.924702,34.4793 L221.360702,34.4793 L221.304702,35.1553 C221.282702,35.4223 221.266702,35.6853 221.249702,35.9453 C221.216702,36.4813 221.184702,36.9873 221.108702,37.4773 C220.656702,40.4003 219.161702,42.2033 216.536702,42.9903 C214.803702,43.5093 213.000702,43.5423 211.177702,43.0863 C208.726702,42.4733 207.167702,40.9713 206.543702,38.6243 C206.274702,37.6113 206.126702,36.5163 206.115702,35.4563 C206.081702,31.9373 206.086702,28.3553 206.091702,24.8923 C206.093702,23.6253 206.095702,22.3593 206.095702,21.0923 L222.559702,21.0923 L222.559702,18.4373 L206.082702,18.4373 L206.082702,9.4663 L203.240702,9.4663 L203.239702,16.5653 C203.238702,22.7053 203.237702,28.8433 203.249702,34.9823 C203.252702,36.2103 203.324702,37.1953 203.478702,38.0813 C204.155702,42.0063 206.367702,44.5443 210.051702,45.6243 C210.508702,45.7573 210.969702,45.8553 211.415702,45.9513 C211.617702,45.9943 211.820702,46.0373 212.021702,46.0833 L215.218702,46.1023 L215.479702,46.0343 C215.568702,46.0103 215.655702,45.9843 215.745702,45.9703 C218.969702,45.4533 221.220702,43.9833 222.626702,41.4773 C223.653702,39.6463 224.090702,37.5853 223.961702,35.1753 L223.924702,34.4793 Z" id="Fill-51"></path>
                    <path d="M241.465802,31.4764 L259.699802,18.4604 L257.402802,18.4604 C257.221802,18.4604 257.063802,18.4634 256.919802,18.4664 C256.665802,18.4724 256.483802,18.4764 256.319802,18.4584 C255.267802,18.3394 254.514802,18.7714 253.974802,19.1614 C251.225802,21.1414 248.413802,23.1354 245.694802,25.0634 L239.366802,29.5514 L239.366802,7.4634 L236.569802,7.4634 L236.569802,45.3584 L239.420802,45.3584 L239.420802,33.4534 C240.553802,34.2944 241.688802,35.1354 242.823802,35.9754 C246.592802,38.7674 250.491802,41.6534 254.281802,44.5454 C255.258802,45.2904 256.218802,45.3864 257.216802,45.3864 C257.388802,45.3864 257.561802,45.3834 257.736802,45.3804 L260.126802,45.3474 L241.465802,31.4764 Z" id="Fill-53"></path>
                    <polygon id="Fill-55" points="228.082902 45.3777 230.859902 45.3777 230.859902 18.4977 228.082902 18.4977"></polygon>
                    <path d="M229.470602,9.2494 C228.249602,9.2544 227.271602,10.1864 227.246602,11.4024 C227.220602,12.6214 228.166602,13.5964 229.401602,13.6244 C229.419602,13.6244 229.438602,13.6244 229.456602,13.6244 C230.050602,13.6244 230.593602,13.4164 230.992602,13.0334 C231.396602,12.6464 231.625602,12.1054 231.637602,11.5104 C231.650602,10.8844 231.433602,10.3094 231.026602,9.8914 C230.628602,9.4814 230.075602,9.2534 229.470602,9.2494" id="Fill-57"></path>
                    <path d="M134.060502,74.6732 C133.652502,74.5802 133.239502,74.5072 132.838502,74.3902 C130.617502,73.7382 129.387502,72.2102 129.002502,69.9792 C128.895502,69.3612 128.866502,68.7232 128.864502,68.0942 C128.853502,63.0272 128.858502,57.9592 128.858502,52.8912 L128.858502,52.3952 L129.727502,52.3952 L129.727502,58.0782 L140.166502,58.0782 L140.166502,58.8282 L129.735502,58.8282 L129.735502,59.2562 C129.735502,62.3042 129.718502,65.3522 129.748502,68.4002 C129.755502,69.1092 129.852502,69.8362 130.034502,70.5222 C130.483502,72.2102 131.621502,73.2592 133.308502,73.6822 C134.519502,73.9852 135.750502,73.9742 136.950502,73.6142 C138.870502,73.0392 139.876502,71.6732 140.173502,69.7462 C140.248502,69.2602 140.259502,68.7642 140.302502,68.2422 L141.055502,68.2422 C141.125502,69.5562 140.921502,70.8182 140.268502,71.9822 C139.388502,73.5512 137.972502,74.3192 136.241502,74.5962 C136.134502,74.6122 136.030502,74.6482 135.924502,74.6732 L134.060502,74.6732 Z" id="Fill-58"></path>
                    <path d="M190.980902,74.2142 L190.104902,74.2142 L190.104902,73.8082 C190.104902,71.1562 190.107902,68.5052 190.101902,65.8542 C190.099902,64.6962 189.956902,63.5592 189.520902,62.4752 C188.580902,60.1402 186.787902,58.9042 184.347902,58.5412 C183.045902,58.3472 181.742902,58.3932 180.478902,58.7862 C177.875902,59.5962 176.460902,61.4382 176.018902,64.0602 C175.899902,64.7642 175.873902,65.4882 175.868902,66.2042 C175.851902,68.7322 175.861902,71.2592 175.861902,73.7862 L175.861902,74.2072 L174.984902,74.2072 L174.984902,73.7972 C174.984902,71.1712 174.979902,68.5442 174.987902,65.9182 C174.991902,64.6122 175.140902,63.3282 175.626902,62.1002 C176.454902,60.0112 177.965902,58.6602 180.108902,58.0332 C182.022902,57.4742 183.963902,57.4662 185.872902,58.0382 C188.634902,58.8672 190.214902,60.7922 190.755902,63.5742 C190.911902,64.3702 190.962902,65.1952 190.970902,66.0092 C190.997902,68.5852 190.980902,71.1622 190.980902,73.7392 L190.980902,74.2142 Z" id="Fill-59"></path>
                    <path d="M113.838302,58.1185 C113.258302,59.2905 112.700302,60.4195 112.142302,61.5485 C110.103302,65.6715 108.061302,69.7935 106.033302,73.9215 C105.905302,74.1815 105.754302,74.2645 105.490302,74.2275 C105.220302,74.1895 104.936302,74.3325 104.744302,73.9415 C102.200302,68.7585 99.6363018,63.5855 97.0773018,58.4085 C97.0343018,58.3225 96.9953018,58.2335 96.9293018,58.0935 C97.2253018,58.0935 97.4853018,58.0605 97.7313018,58.1065 C97.8503018,58.1295 97.9803018,58.2795 98.0413018,58.4025 C99.7153018,61.7825 101.381302,65.1655 103.048302,68.5485 C103.819302,70.1115 104.591302,71.6745 105.393302,73.2985 C105.474302,73.1465 105.535302,73.0395 105.590302,72.9285 C107.916302,68.2165 110.242302,63.5035 112.567302,58.7905 C112.938302,58.0395 112.937302,58.0395 113.838302,58.1185" id="Fill-60"></path>
                    <path d="M147.350002,74.2142 L146.474002,74.2142 L146.474002,73.8162 C146.474002,70.6812 146.469002,67.5472 146.476002,64.4132 C146.478002,63.4582 146.576002,62.5142 146.885002,61.6002 C147.499002,59.7812 148.716002,58.5712 150.552002,58.0042 C152.194002,57.4952 153.858002,57.4852 155.499002,57.9852 C157.734002,58.6672 158.991002,60.2432 159.417002,62.4952 C159.542002,63.1582 159.561002,63.8412 159.633002,64.5532 L158.825002,64.5532 C158.730002,63.8322 158.682002,63.1042 158.532002,62.3962 C158.072002,60.2372 156.457002,58.8002 154.267002,58.5292 C153.223002,58.4012 152.189002,58.4012 151.164002,58.6702 C149.064002,59.2222 147.894002,60.6242 147.507002,62.7072 C147.395002,63.3122 147.360002,63.9372 147.357002,64.5532 C147.342002,67.6122 147.350002,70.6722 147.350002,73.7322 L147.350002,74.2142 Z" id="Fill-61"></path>
                    <polygon id="Fill-62" points="120.656902 74.2157 121.481902 74.2157 121.481902 58.1167 120.656902 58.1167"></polygon>
                    <path d="M121.97651,53.1888 C121.974502,53.7258 121.600502,54.0968 121.061502,54.0968 C120.538502,54.0968 120.134502,53.7058 120.126502,53.1918 C120.119502,52.6688 120.548502,52.2468 121.077502,52.2578 C121.606502,52.2688 121.978502,52.6538 121.97651,53.1888" id="Fill-63"></path>
                    <polygon id="Fill-64" points="165.890902 74.2017 166.715902 74.2017 166.715902 58.1037 165.890902 58.1037"></polygon>
                    <path d="M167.20992,53.1703 C167.212902,53.7123 166.849902,54.0883 166.313902,54.0963 C165.773902,54.1053 165.353902,53.6983 165.359902,53.1723 C165.365902,52.6623 165.777902,52.2572981 166.292902,52.2572981 C166.818902,52.2563 167.206902,52.6413 167.20992,53.1703" id="Fill-65"></path>
                    <polygon id="Fill-66" points="197.238902 74.2137 198.059902 74.2137 198.059902 58.1197 197.238902 58.1197"></polygon>
                    <path d="M198.556602,53.1639 C198.562602,53.7079 198.202602,54.0849 197.666602,54.0969 C197.125602,54.1079 196.704602,53.7059 196.706595,53.1789 C196.707602,52.6699 197.118602,52.2609 197.633602,52.2569 C198.159602,52.2519 198.551602,52.6369 198.556602,53.1639" id="Fill-67"></path>
                    <path d="M81.0785018,33.8675 C79.6825018,24.7625 75.2975018,17.2375 68.6535018,10.9665 C68.1795018,10.5195 68.1465018,10.4985 68.1145018,10.5525 C65.3525018,15.1405 63.7885018,18.0545 61.8715018,21.4385 C61.6435018,21.8415 61.3165018,22.3505 61.0475018,22.8465 C65.7815018,27.8395 68.6945018,34.5755 68.6945018,41.9835 C68.6945018,57.3385 56.2025018,69.8295 40.8475018,69.8295 C25.4925018,69.8295 13.0005018,57.3385 13.0005018,41.9835 C13.0005018,34.4375 16.0215018,27.5875 20.9125018,22.5675 C20.7295018,22.1425 20.4035018,21.6775 20.1755018,21.2315 C18.2575018,17.4885 16.3845018,13.7215 14.3025018,9.5775 C12.5415018,11.4535 10.8305018,12.9945 9.45450176,14.7915 C1.66150176,24.9615 -1.64849824,36.2915 0.786501761,49.0865 C2.73850176,59.3455 7.86750176,67.7495 16.1305018,73.9345 C25.4195018,80.8875 36.0085018,83.4195 47.5625018,81.5345 C61.0715018,79.3325 70.8785018,71.9685 77.3225018,60.0345 C81.7635018,51.8115 82.4705018,42.9535 81.0785018,33.8675" id="Fill-68"></path>
                    <path d="M52.1507569,39.3158 C52.1558018,39.4038 62.1098018,39.3408 64.4858018,39.4128 C63.9638018,34.5918 62.0048018,30.1978 59.0448018,26.6668 C59.0098018,26.7328 58.9748018,26.7998 58.9348018,26.8778 C57.3858018,29.5638 55.2818018,33.3578 53.8288018,36.0728 C52.9568018,37.6998 52.1438018,39.1908 52.1507569,39.3158" id="Fill-69"></path>
                    <path d="M29.3754018,39.2708 C27.3404018,35.1598 25.0794018,30.5328 23.1514018,26.8008 C23.0114018,26.5308 22.8964018,26.3328 22.7824018,26.2128 C20.4594018,28.8948 18.7224018,32.0938 17.7704018,35.6148 C17.7354018,35.7498 17.6944018,35.8818 17.6624018,36.0178 C17.6444018,36.0908 17.6294018,36.1648 17.6114018,36.2378 C17.3864018,37.2238 17.2154018,38.2318 17.1094018,39.2708 L29.3754018,39.2708 Z" id="Fill-70"></path>
                    <path d="M52.2143018,43.7269 L49.8043018,43.7269 C49.4073018,44.3609 49.0173018,45.0809 48.8383018,45.4239 C46.1573018,50.5639 43.4123018,55.6699 40.5613018,61.0329 C37.8183018,55.6979 35.2233018,50.6089 32.5773018,45.5479 C32.4473018,45.2989 31.9823018,44.4159 31.5973018,43.7269 L30.0843018,43.7269 C26.7143018,43.8099 22.4123018,43.7559 18.6443018,43.7269 L16.9953018,43.7269 C17.8923018,56.1059 28.2433018,65.9059 40.8473018,65.9059 C53.4383018,65.9059 63.7813018,56.1259 64.6963018,43.7659 C60.5373018,43.7039 56.3743018,43.7979 52.2143018,43.7269" id="Fill-71"></path>
                    <path d="M40.9394018,14.161 C47.2604018,14.161 53.0934018,16.282 57.7724018,19.844 L64.4814018,7.472 C57.8104018,2.77 49.6794018,-2.84217094e-14 40.8974018,-2.84217094e-14 C32.2544018,-2.84217094e-14 24.2414018,2.68 17.6294018,7.246 L24.0894018,19.857 C28.7724018,16.287 34.6104018,14.161 40.9394018,14.161" id="Fill-72"></path>
                    <polygon id="Fill-73" points="36.2836018 43.66 40.4496018 51.792 44.8586018 43.66"></polygon>
                    <path d="M47.2387018,39.2708 L55.8767018,23.3408 C51.7797018,20.0568 46.5867018,18.0848 40.9397018,18.0848 C35.2507018,18.0848 30.0217018,20.0838 25.9117018,23.4128 L34.0347018,39.2708 L47.2387018,39.2708 Z" id="Fill-74"></path>
                </g>
            </g>
        </g>
    </g>
</svg>