<?xml version="1.0" encoding="UTF-8"?>
<svg width="27px" height="27px" viewBox="0 0 27 27" version="1.1" xmlns="http://www.w3.org/2000/svg" xmlns:xlink="http://www.w3.org/1999/xlink">
    <title>ayarlar</title>
    <g id="Page-1" stroke="none" stroke-width="1" fill="none" fill-rule="evenodd">
        <g id="estetikvitrini_mobiluygulama_düşükkalite_siyah" transform="translate(-311.000000, -774.000000)" fill="#352A4D">
            <g id="Group-76" transform="translate(0.000000, 35.000000)">
                <g id="ayarlar" transform="translate(311.800824, 739.908229)">
                    <path d="M15.1630761,16.8222712 C15.1180761,16.8352712 15.0720761,16.8392712 15.0270761,16.8612712 C14.5800761,17.0852712 14.0860761,17.2472712 13.5200761,17.3582712 C12.6440761,17.4662712 11.7730761,17.3352712 10.9320761,16.9692712 C9.90307614,16.4292712 9.19207614,15.6922712 8.75807614,14.7152712 C8.47207614,14.0652712 8.36107614,13.3932712 8.39207614,12.6902712 C8.39607614,12.5822712 8.40007614,12.4772712 8.41607614,12.3792712 C8.77707614,10.0972712 10.3770761,8.62027124 12.6950761,8.42627124 C13.6840761,8.39727124 14.6050761,8.66527124 15.5170761,9.24927124 C16.1090761,9.70827124 16.5760761,10.2612712 16.9120761,10.9002712 C17.1070761,11.3112712 17.2530761,11.7622712 17.3380761,12.2562712 C17.3420761,12.2862712 17.3510761,12.3172712 17.3550761,12.3472712 C17.3660761,12.4202712 17.3690761,12.4952712 17.3730761,12.5712712 C17.4340761,13.3392712 17.3220761,14.0662712 17.0120761,14.7692712 C16.9350761,14.9412712 16.8390761,15.0972712 16.7450761,15.2552712 C16.6410761,15.3602712 16.5590761,15.4832712 16.5080761,15.6142712 C16.1580761,16.0892712 15.7090761,16.4882712 15.1630761,16.8222712 M7.14907614,13.8712712 C7.25207614,14.5902712 7.52507614,15.2672712 7.90307614,15.8852712 C7.95707614,16.0602712 8.06507614,16.2252712 8.21007614,16.3562712 C8.67007614,16.9672712 9.25307614,17.4812712 9.91407614,17.8772712 C9.97807614,17.9572712 10.0580761,18.0312712 10.1640761,18.0872712 C10.6780761,18.3572712 11.1210761,18.5212712 11.5600761,18.6032712 C11.9970761,18.7132712 12.4380761,18.7682712 12.8800761,18.7682712 C13.2330761,18.7682712 13.5880761,18.7332712 13.9380761,18.6622712 C16.3150761,18.2542712 18.2850761,16.2592712 18.6210761,13.9252712 C18.7330761,13.3142712 18.7330761,12.7082712 18.6430761,12.1082712 C18.5270761,11.1802712 18.1580761,10.2982712 17.6050761,9.53027124 C17.5700761,9.48127124 17.5360761,9.43027124 17.4990761,9.38327124 C16.5990761,8.20627124 15.2840761,7.33627124 13.8140761,7.13427124 C13.2630761,7.05827124 12.8090761,7.04527124 12.3860761,7.09127124 C11.2780761,7.17627124 10.2800761,7.55327124 9.42707614,8.21427124 C8.49607614,8.88027124 7.82307614,9.77027124 7.43107614,10.8562712 C7.30807614,11.1762712 7.22607614,11.5002712 7.16307614,11.8272712 C7.15507614,11.8682712 7.14907614,11.9092712 7.14207614,11.9512712 C7.03607614,12.5832712 7.02907614,13.2252712 7.14907614,13.8712712" id="Fill-40"></path>
                    <path d="M3.91497614,11.2987712 C4.13897614,11.2627712 4.28797614,11.1477712 4.40397614,10.9957712 L4.40497614,10.9957712 C4.46597614,10.9277712 4.50697614,10.8497712 4.53297614,10.7667712 C4.54197614,10.7387712 4.56397614,10.7277712 4.57097614,10.6977712 C4.75297614,9.99677124 5.03797614,9.30977124 5.41897614,8.65277124 C5.56097614,8.40677124 5.57997614,8.16677124 5.48097614,7.93377124 C5.43797614,7.82277124 5.37497614,7.70577124 5.27897614,7.56877124 L4.94797614,7.08777124 C4.65797614,6.66877124 4.35897614,6.23577124 4.05797614,5.81377124 C4.02897614,5.77377124 4.01197614,5.73877124 3.99397614,5.70377124 C3.98597614,5.68077124 3.96897614,5.65377124 3.96797614,5.63177124 C3.96397614,5.61877124 3.96197614,5.60677124 3.96097614,5.59377124 C3.96797614,5.52777124 4.00297614,5.46677124 4.07197614,5.39977124 C4.50097614,4.98077124 4.92997614,4.55177124 5.34697614,4.12377124 C5.48897614,3.97877124 5.60197614,3.97077124 5.77797614,4.09277124 C6.02097614,4.26077124 6.26597614,4.42577124 6.51097614,4.59077124 L6.80197614,4.78677124 C6.95697614,4.93877124 7.13297614,5.04977124 7.30397614,5.15777124 C7.42797614,5.23677124 7.54497614,5.31077124 7.65097614,5.39777124 C7.95097614,5.64177124 8.28297614,5.65877124 8.63997614,5.44977124 C9.26197614,5.08577124 9.92897614,4.80977124 10.6209761,4.63077124 C10.9919761,4.53377124 11.1929761,4.30977124 11.2549761,3.92377124 C11.3349761,3.41377124 11.4319761,2.89777124 11.5239761,2.39777124 C11.5649761,2.17377124 11.6069761,1.94977124 11.6469761,1.72777124 C11.7049761,1.40777124 11.7429761,1.37577124 12.0519761,1.37477124 C12.2549761,1.37377124 12.4569761,1.37477124 12.6599761,1.37477124 C13.0179761,1.37577124 13.3869761,1.37677124 13.7509761,1.37077124 C13.9509761,1.36377124 14.0309761,1.42577124 14.0859761,1.51977124 C14.0989761,1.56277124 14.1099761,1.60877124 14.1219761,1.67277124 C14.1519761,1.83977124 14.1839761,2.00677124 14.2149761,2.17377124 C14.2789761,2.53177124 14.3459761,2.89877124 14.4049761,3.26077124 L14.4069761,3.27277124 C14.4359761,3.44777124 14.4619761,3.58977124 14.4879761,3.71877124 C14.4969761,3.76977124 14.5069761,3.81977124 14.5159761,3.86977124 C14.5579761,4.13977124 14.6739761,4.32477124 14.8629761,4.44877124 C14.8709761,4.45377124 14.8779761,4.46077124 14.8859761,4.46677124 C14.8989761,4.47477124 14.9139761,4.48277124 14.9279761,4.48877124 C15.1029761,4.59677124 15.3479761,4.68377124 15.7219761,4.80377124 C15.7609761,4.81677124 15.7969761,4.81977124 15.8249761,4.82277124 C15.8259761,4.82377124 15.8269761,4.82377124 15.8279761,4.82377124 C15.9249761,4.86677124 16.0219761,4.90777124 16.1199761,4.94977124 C16.4749761,5.10277124 16.8099761,5.24577124 17.1229761,5.44077124 C17.4679761,5.65477124 17.7999761,5.64077124 18.1369761,5.39777124 C18.4499761,5.17077124 18.7749761,4.94577124 19.0899761,4.72977124 C19.3789761,4.52977124 19.6769761,4.32377124 19.9679761,4.11577124 C20.1789761,3.96477124 20.3049761,3.97477124 20.4659761,4.15677124 C20.5499761,4.25277124 20.6429761,4.33477124 20.7319761,4.41377124 C20.7689761,4.44577124 20.8069761,4.47977124 20.8439761,4.51277124 C20.9249761,4.59677124 21.0049761,4.68177124 21.0859761,4.76677124 C21.2729761,4.96577124 21.4679761,5.17077124 21.6729761,5.36277124 C21.7499761,5.43677124 21.7899761,5.50077124 21.8059761,5.56777124 C21.8049761,5.62977124 21.7839761,5.69477124 21.7279761,5.77577124 C21.5609761,6.01577124 21.3979761,6.25877124 21.2339761,6.50177124 C21.1649761,6.60577124 21.0949761,6.70977124 21.0239761,6.81377124 C20.9649761,6.89677124 20.9019761,6.98577124 20.8399761,7.07277124 C20.6979761,7.27177124 20.5519761,7.47777124 20.4039761,7.67477124 C20.2719761,7.85177124 20.2229761,8.03277124 20.2349761,8.21977124 C20.2329761,8.24977124 20.2419761,8.28377124 20.2449761,8.31577124 C20.2499761,8.33977124 20.2539761,8.36277124 20.2619761,8.38777124 C20.2909761,8.52077124 20.3519761,8.66177124 20.4659761,8.83177124 C20.7829761,9.41777124 21.0369761,10.0247712 21.1979761,10.6437712 C21.2009761,10.6567712 21.2119761,10.6617712 21.2159761,10.6757712 C21.2249761,10.8147712 21.2689761,10.9447712 21.3649761,11.0497712 C21.5259761,11.2277712 21.7899761,11.3297712 22.1289761,11.3457712 C22.1409761,11.3467712 22.1529761,11.3467712 22.1649761,11.3467712 C22.2109761,11.3467712 22.2529761,11.3307712 22.2969761,11.3227712 C22.6459761,11.3837712 22.9989761,11.4447712 23.3409761,11.5077712 C23.5899761,11.5537712 23.8379761,11.5997712 24.0869761,11.6437712 C24.0979761,11.6457712 24.1019761,11.6477712 24.1109761,11.6497712 C24.1539761,11.6727712 24.1879761,11.7017712 24.2379761,11.7207712 C24.3779761,11.7727712 24.4289761,11.8567712 24.4419761,11.9917712 C24.4429761,12.0217712 24.4459761,12.0397712 24.4459761,12.0747712 C24.4469761,12.2487712 24.4459761,12.4227712 24.4449761,12.5967712 C24.4419761,12.9607712 24.4399761,13.3377712 24.4519761,13.7087712 C24.4599761,13.9667712 24.3769761,14.0597712 24.2379761,14.1177712 L23.4729761,14.2507712 C22.9139761,14.3477712 22.3549761,14.4437712 21.7969761,14.5397712 C21.5079761,14.5897712 21.3099761,14.7647712 21.2249761,15.0467712 C21.1699761,15.2287712 21.1179761,15.4107712 21.0649761,15.5937712 L21.0249761,15.7357712 C21.0119761,15.7767712 20.9989761,15.8177712 20.9839761,15.8597712 C20.8129761,16.2997712 20.6039761,16.7357712 20.3609761,17.1547712 C20.2609761,17.3267712 20.2209761,17.4937712 20.2319761,17.6577712 C20.2269761,17.8507712 20.3149761,18.0277712 20.5309761,18.2897712 L21.7809761,20.1117712 C21.7979761,20.1427712 21.8079761,20.1697712 21.8109761,20.1937712 C21.8139761,20.2157712 21.8089761,20.2367712 21.8069761,20.2587712 C21.7789761,20.3317712 21.6819761,20.4417712 21.5539761,20.5707712 C21.5049761,20.6197712 21.4619761,20.6707712 21.4209761,20.7197712 C21.4049761,20.7377712 21.3889761,20.7567712 21.3729761,20.7757712 C21.2829761,20.8627712 21.1909761,20.9497712 21.1009761,21.0357712 C20.8859761,21.2407712 20.6639761,21.4517712 20.4559761,21.6727712 C20.2859761,21.8527712 20.1629761,21.8617712 19.9519761,21.7087712 C19.6129761,21.4647712 19.2659761,21.2257712 18.9289761,20.9927712 C18.7509761,20.8697712 18.5729761,20.7477712 18.3949761,20.6237712 C17.6419761,20.0977712 17.5469761,20.0937712 16.7789761,20.5947712 L16.7119761,20.6227712 C16.1999761,20.8407712 15.6719761,21.0657712 15.1289761,21.2057712 C14.9399761,21.2537712 14.6929761,21.3487712 14.5899761,21.6147712 L14.5789761,21.6157712 L14.5599761,21.7187712 C14.5579761,21.7307712 14.5559761,21.7407712 14.5539761,21.7527712 L14.0709761,24.3467712 C13.9859761,24.4277712 13.8809761,24.4627712 13.7319761,24.4577712 C13.3999761,24.4517712 13.0639761,24.4567712 12.7399761,24.4607712 C12.6069761,24.4627712 12.4749761,24.4647712 12.3429761,24.4657712 L12.2849761,24.4617712 C12.2349761,24.4587712 12.1859761,24.4547712 12.1369761,24.4547712 C11.9569761,24.4527712 11.8049761,24.4477712 11.7559761,24.4087712 C11.7189761,24.3807712 11.6859761,24.2827712 11.6549761,24.1677712 L11.3339761,22.4417712 C11.2889761,22.1947712 11.2469761,21.9487712 11.1999761,21.7027712 C11.1999761,21.6987712 11.1949761,21.6967712 11.1939761,21.6937712 L11.1899761,21.6707712 L11.1819761,21.6697712 C11.1249761,21.4507712 10.9549761,21.2877712 10.6829761,21.2177712 C9.96497614,21.0327712 9.26697614,20.7437712 8.54697614,20.3347712 C8.04797614,20.0507712 7.66597614,20.3997712 7.52697614,20.5337712 C7.38997614,20.6267712 7.24997614,20.7177712 7.11097614,20.8077712 C6.64397614,21.1127712 6.15997614,21.4277712 5.72797614,21.8127712 C5.54497614,21.8477712 5.40197614,21.7867712 5.23397614,21.6037712 C4.85597614,21.1937712 4.44997614,20.7997712 4.10197614,20.4697712 C4.01597614,20.3857712 3.97897614,20.3087712 3.96497614,20.2287712 C3.98697614,20.1517712 4.05497614,20.0397712 4.14397614,19.9117712 C4.24697614,19.7617712 4.35197614,19.6117712 4.45497614,19.4607712 C4.75097614,19.0317712 5.05597614,18.5897712 5.36297614,18.1597712 C5.47597614,18.0037712 5.53397614,17.8467712 5.54097614,17.6877712 C5.56297614,17.5147712 5.50097614,17.3377712 5.35297614,17.0747712 C4.99497614,16.4337712 4.74897614,15.8367712 4.60097614,15.2507712 C4.58697614,15.1957712 4.56397614,15.1537712 4.54597614,15.1057712 C4.54597614,15.1037712 4.54497614,15.1027712 4.54497614,15.1017712 L4.54397614,15.1007712 C4.41297614,14.7527712 4.18197614,14.5607712 3.79597614,14.5067712 C3.32197614,14.4417712 2.84097614,14.3517712 2.37497614,14.2647712 C2.17497614,14.2277712 1.97597614,14.1907712 1.77497614,14.1537712 C1.56197614,14.1087712 1.40297614,14.0707712 1.36097614,14.0177712 C1.34197614,13.9917712 1.33097614,13.9377712 1.32397614,13.8677712 C1.32197614,13.8487712 1.32097614,13.8287712 1.31997614,13.8077712 C1.31897614,13.7797712 1.31797614,13.7447712 1.31797614,13.7137712 C1.32797614,13.3587712 1.32697614,12.9987712 1.32397614,12.6517712 C1.32297614,12.4777712 1.32197614,12.3037712 1.32297614,12.1297712 C1.32297614,11.7897712 1.35097614,11.7577712 1.68297614,11.6977712 C1.93197614,11.6537712 2.18097614,11.6087712 2.42897614,11.5627712 C2.91597614,11.4727712 3.41897614,11.3797712 3.91497614,11.2987712 M25.7639761,12.3477712 C25.7689761,12.1847712 25.7719761,12.0187712 25.7659761,11.8507712 C25.7619761,11.7777712 25.7339761,11.7107712 25.7199761,11.6407712 C25.6249761,11.0387712 25.1799761,10.5307712 24.5699761,10.4037712 C23.9699761,10.2787712 23.3269761,10.1637712 22.6619761,10.0607712 C22.4249761,10.0237712 22.3469761,9.96077124 22.2989761,9.76977124 C22.1889761,9.32677124 22.0049761,8.88077124 21.7509761,8.44377124 C21.7019761,8.35777124 21.6819761,8.29577124 21.6749761,8.23977124 C21.6859761,8.20977124 21.7029761,8.17877124 21.7359761,8.13177124 C21.8319761,7.99377124 21.9289761,7.85677124 22.0249761,7.71877124 C22.3079761,7.31677124 22.5999761,6.90177124 22.8769761,6.48477124 C23.0059761,6.29177124 23.0729761,6.08277124 23.1109761,5.87277124 C23.1149761,5.85677124 23.1129761,5.83877124 23.1159761,5.82177124 C23.1359761,5.69177124 23.1459761,5.56277124 23.1319761,5.43277124 C23.1219761,5.33177124 23.0909761,5.23677124 23.0609761,5.13877124 C23.0479761,5.09677124 23.0429761,5.05277124 23.0249761,5.01277124 C22.9539761,4.83277124 22.8589761,4.66077124 22.7209761,4.51677124 C22.2539761,4.02877124 21.7599761,3.53477124 21.2509761,3.04677124 C20.7599761,2.57477124 20.0239761,2.48477124 19.4609761,2.82477124 C18.9539761,3.13077124 18.5129761,3.44077124 18.1089761,3.77177124 C18.0799761,3.79377124 18.0469761,3.81977124 18.0139761,3.84677124 C17.9439761,3.90277124 17.8779761,3.95477124 17.8099761,3.99977124 C17.6259761,4.11977124 17.5009761,4.12677124 17.3319761,4.02477124 C16.9189761,3.77377124 16.4609761,3.58377124 15.9729761,3.46077124 C15.9489761,3.45477124 15.9419761,3.44077124 15.9229761,3.43377124 C15.8309761,3.34877124 15.7569761,3.24877124 15.7089761,3.12077124 C15.6789761,2.92677124 15.6419761,2.75077124 15.6079761,2.56077124 C15.5689761,2.09977124 15.4989761,1.69877124 15.3899761,1.34177124 C15.3849761,1.31877124 15.3809761,1.29177124 15.3759761,1.26877124 C15.2199761,0.493771236 14.6269761,0.0107712362 13.8289761,0.00577123617 L13.4709761,0.00377123617 C12.9409761,-1.59872116e-14 12.3939761,-0.00422876383 11.8539761,0.00977123617 C11.2459761,0.0247712362 10.7909761,0.317771236 10.5379761,0.855771236 C10.3189761,1.35577124 10.1959761,1.92377124 10.1459761,2.64877124 C10.1059761,3.23977124 9.86097614,3.52677124 9.30097614,3.63877124 L9.26497614,3.65077124 C9.18197614,3.68577124 9.09797614,3.71977124 9.01397614,3.75277124 C8.81297614,3.83277124 8.60597614,3.91477124 8.41397614,4.02877124 C8.25197614,4.12477124 8.15997614,4.11577124 7.98797614,3.98677124 C7.64097614,3.72877124 7.27797614,3.47977124 6.92797614,3.23977124 C6.80997614,3.15877124 6.68997614,3.07777124 6.57197614,2.99577124 C5.76897614,2.44077124 5.04197614,2.50677124 4.34997614,3.19777124 C4.27497614,3.27277124 4.20597614,3.35077124 4.13897614,3.42577124 C4.10897614,3.45777124 4.07997614,3.48877124 4.05197614,3.52177124 C3.94597614,3.62377124 3.83997614,3.72577124 3.73297614,3.82677124 C3.49297614,4.05777124 3.24397614,4.29577124 3.01297614,4.54577124 C2.71297614,4.86977124 2.60297614,5.28777124 2.64597614,5.70377124 C2.65897614,5.93477124 2.70597614,6.16177124 2.82897614,6.36177124 C3.02997614,6.68677124 3.25797614,6.99877124 3.47797614,7.30077124 C3.57197614,7.43177124 3.66797614,7.56277124 3.76197614,7.69477124 C3.77897614,7.72577124 3.79597614,7.75777124 3.81097614,7.78977124 C3.85697614,7.88077124 3.90997614,7.98277124 3.99397614,8.06577124 C4.11797614,8.18577124 4.14797614,8.27277124 4.01897614,8.49777124 C3.76497614,8.93477124 3.58097614,9.38077124 3.47097614,9.82377124 C3.42297614,10.0157712 3.34497614,10.0777712 3.10697614,10.1147712 C2.53897614,10.2027712 1.99297614,10.3017712 1.46997614,10.4057712 C1.34697614,10.3877712 1.21597614,10.3867712 1.07397614,10.4297712 C0.481976143,10.6067712 0.031976143,11.1817712 0.00497614305,11.7967712 C-0.00402385695,11.9727712 0.000976143047,12.1497712 0.00597614305,12.3197712 C0.00597614305,12.3277712 0.00597614305,12.3357712 0.00697614305,12.3447712 C0.00297614305,12.6527712 0.00297614305,12.9657712 0.00497614305,13.2937712 C0.00297614305,13.5087712 -0.00102385695,13.7227712 0.00397614305,13.9377712 C0.00397614305,13.9577712 0.013976143,13.9757712 0.014976143,13.9957712 L0.014976143,14.0037712 C0.032976143,14.5827712 0.315976143,15.0217712 0.833976143,15.2737712 C0.954976143,15.3747712 1.09497614,15.4107712 1.20497614,15.4307712 C1.35597614,15.4577712 1.50797614,15.4877712 1.65797614,15.5187712 C2.00097614,15.5857712 2.35497614,15.6557712 2.71097614,15.6947712 C3.09797614,15.7377712 3.33697614,15.8137712 3.46297614,16.0167712 C3.48397614,16.0817712 3.51097614,16.1487712 3.53397614,16.2137712 C3.54397614,16.2587712 3.56097614,16.2917712 3.56597614,16.3447712 C3.57197614,16.4227712 3.60897614,16.4847712 3.63597614,16.5277712 C3.64097614,16.5357712 3.64397614,16.5437712 3.64897614,16.5507712 C3.74397614,16.8657712 3.88197614,17.1747712 4.05897614,17.4687712 C4.08797614,17.5157712 4.09397614,17.5497712 4.09697614,17.5857712 C4.04397614,17.7047712 3.96497614,17.8147712 3.87697614,17.9277712 C3.81597614,18.0047712 3.75397614,18.0837712 3.69797614,18.1717712 C3.52797614,18.4397712 3.34597614,18.7067712 3.16997614,18.9647712 C3.09297614,19.0767712 3.01697614,19.1887712 2.94097614,19.3007712 C2.76397614,19.5387712 2.68397614,19.8037712 2.65297614,20.0697712 C2.64997614,20.0907712 2.64097614,20.1117712 2.63897614,20.1347712 C2.63797614,20.1457712 2.64197614,20.1527712 2.64097614,20.1647712 C2.63597614,20.2777712 2.64597614,20.3867712 2.66797614,20.4977712 C2.68297614,20.5897712 2.69997614,20.6807712 2.72997614,20.7637712 C2.74197614,20.7927712 2.75597614,20.8197712 2.76897614,20.8497712 C2.93097614,21.2177712 3.21797614,21.5107712 3.52797614,21.7727712 C3.61997614,21.8667712 3.71197614,21.9617712 3.80397614,22.0577712 C4.01197614,22.2727712 4.22697614,22.4957712 4.44397614,22.7107712 C5.03197614,23.2927712 5.79597614,23.3617712 6.48597614,22.8957712 C6.72197614,22.7367712 6.95797614,22.5707712 7.18597614,22.4117712 C7.42197614,22.2477712 7.66397614,22.0777712 7.90497614,21.9157712 C7.95097614,21.8847712 7.99197614,21.8517712 8.03197614,21.8197712 C8.10997614,21.7567712 8.16697614,21.7127712 8.22697614,21.6937712 C8.65397614,21.9627712 9.12297614,22.1347712 9.57697614,22.3017712 L9.71497614,22.3527712 C9.76097614,22.3687712 9.80597614,22.3807712 9.84897614,22.3917712 C9.92097614,22.4107712 9.96497614,22.4277712 9.99897614,22.4517712 C10.0069761,22.4717712 10.0189761,22.4867712 10.0219761,22.5167712 C10.0359761,22.6027712 10.0559761,22.6857712 10.0719761,22.7717712 L10.1139761,23.0097712 C10.2089761,23.5437712 10.3029761,24.0787712 10.4009761,24.6117712 C10.4269761,24.7507712 10.4949761,24.9347712 10.6199761,25.1047712 C10.6219761,25.1077712 10.6239761,25.1107712 10.6249761,25.1117712 C10.6559761,25.1527712 10.6699761,25.1967712 10.7099761,25.2347712 C10.9769761,25.6027712 11.3559761,25.7987712 11.8389761,25.8197712 C11.9229761,25.8227712 12.0059761,25.8237712 12.0899761,25.8237712 C12.2199761,25.8237712 12.3499761,25.8207712 12.4769761,25.8177712 C12.5689761,25.8157712 12.6619761,25.8137712 12.7509761,25.8127712 C12.8729761,25.8137712 12.9939761,25.8157712 13.1149761,25.8177712 C13.3849761,25.8217712 13.6639761,25.8267712 13.9399761,25.8197712 C14.5939761,25.8037712 15.1839761,25.3497712 15.3419761,24.7387712 C15.4199761,24.4377712 15.4669761,24.1267712 15.5129761,23.8267712 C15.5319761,23.6947712 15.5529761,23.5627712 15.5739761,23.4367712 C15.5919761,23.3527712 15.6089761,23.2687712 15.6269761,23.1857712 C15.6699761,22.9857712 15.7149761,22.7787712 15.7469761,22.5707712 C15.7619761,22.4737712 15.7839761,22.4417712 15.9069761,22.4017712 C16.5419761,22.1947712 17.0669761,21.9927712 17.5529761,21.6907712 C17.5819761,21.6997712 17.6149761,21.7247712 17.6669761,21.7657712 C17.6959761,21.7887712 17.7259761,21.8117712 17.7559761,21.8317712 C18.1429761,22.0917712 18.5269761,22.3547712 18.9129761,22.6167712 L19.2949761,22.8767712 C19.9179761,23.3427712 20.7079761,23.3047712 21.2589761,22.7807712 C21.7589761,22.3077712 22.2529761,21.8127712 22.7279761,21.3117712 C23.0359761,20.9877712 23.1539761,20.5817712 23.1229761,20.1767712 C23.1229761,20.1427712 23.1349761,20.1147712 23.1319761,20.0797712 C23.1249761,20.0087712 23.0999761,19.9417712 23.0839761,19.8717712 C23.0799761,19.8597712 23.0789761,19.8467712 23.0749761,19.8337712 C23.0259761,19.6437712 22.9529761,19.4567712 22.8269761,19.2767712 C22.6949761,19.0887712 22.5659761,18.9017712 22.4359761,18.7137712 C22.2119761,18.3877712 21.9789761,18.0507712 21.7419761,17.7237712 C21.6879761,17.6497712 21.6679761,17.5987712 21.6669761,17.5487712 C21.9779761,17.0317712 22.1799761,16.4807712 22.3469761,15.9567712 C22.3639761,15.9027712 22.3819761,15.8717712 22.4049761,15.8487712 C22.4089761,15.8457712 22.4109761,15.8417712 22.4149761,15.8387712 C22.4399761,15.8177712 22.4729761,15.8077712 22.5229761,15.7987712 C22.5919761,15.7857712 22.6619761,15.7777712 22.7309761,15.7677712 C22.9249761,15.7397712 23.1249761,15.7127712 23.3209761,15.6367712 C23.7539761,15.6037712 24.2009761,15.5247712 24.6879761,15.3947712 C25.2989761,15.2327712 25.7519761,14.6427712 25.7659761,13.9917712 C25.7709761,13.7467712 25.7679761,13.5007712 25.7649761,13.2577712 C25.7669761,12.9437712 25.7679761,12.6437712 25.7639761,12.3477712" id="Fill-42"></path>
                </g>
            </g>
        </g>
    </g>
</svg>