<?xml version="1.0" encoding="UTF-8"?>
<svg width="26px" height="28px" viewBox="0 0 26 28" version="1.1" xmlns="http://www.w3.org/2000/svg" xmlns:xlink="http://www.w3.org/1999/xlink">
    <title>ev</title>
    <g id="Page-1" stroke="none" stroke-width="1" fill="none" fill-rule="evenodd">
        <g id="estetikvitrini_mobiluygulama_düşükkalite_siyah" transform="translate(-32.000000, -774.000000)" fill="#352A4D">
            <g id="Group-76" transform="translate(0.000000, 35.000000)">
                <g id="ev" transform="translate(32.379800, 739.336100)">
                    <path d="M12.052,1.543 C11.785,1.543 11.518,1.63 11.295,1.803 L2.019,9.017 C1.716,9.254 1.542,9.608 1.542,9.992 L1.542,22.8 C1.542,23.757 2.321,24.535 3.278,24.535 L20.827,24.535 C21.784,24.535 22.563,23.757 22.563,22.8 L22.563,9.992 C22.563,9.608 22.389,9.254 22.086,9.017 L12.81,1.803 C12.587,1.63 12.32,1.543 12.052,1.543 L12.052,1.543 Z M20.827,26.078 L3.278,26.078 C1.47,26.078 -3.55271368e-15,24.607 -3.55271368e-15,22.8 L-3.55271368e-15,9.992 C-3.55271368e-15,9.129 0.39,8.33 1.071,7.8 L10.348,0.585 C11.352,-0.195 12.753,-0.195 13.757,0.585 L23.034,7.8 C23.715,8.33 24.106,9.129 24.106,9.992 L24.106,22.8 C24.106,24.607 22.635,26.078 20.827,26.078 L20.827,26.078 Z" id="Fill-56"></path>
                    <path d="M18.4332,20.3924 L6.0172,20.3924 C5.5912,20.3924 5.2452,20.0474 5.2452,19.6214 C5.2452,19.1954 5.5912,18.8494 6.0172,18.8494 L18.4332,18.8494 C18.8592,18.8494 19.2042,19.1954 19.2042,19.6214 C19.2042,20.0474 18.8592,20.3924 18.4332,20.3924" id="Fill-58"></path>
                </g>
            </g>
        </g>
    </g>
</svg>