<?xml version="1.0" encoding="UTF-8"?>
<svg width="21px" height="26px" viewBox="0 0 21 26" version="1.1" xmlns="http://www.w3.org/2000/svg" xmlns:xlink="http://www.w3.org/1999/xlink">
    <title>haritanoktası</title>
    <g id="Page-1" stroke="none" stroke-width="1" fill="none" fill-rule="evenodd">
        <g id="estetikvitrini_mobiluygulama_düşükkalite_siyah" transform="translate(-247.000000, -776.000000)" fill="#352A4D">
            <g id="Group-76" transform="translate(0.000000, 35.000000)">
                <g id="haritanoktası" transform="translate(247.229200, 741.189600)">
                    <path d="M6.6072,9.5116 C6.6072,7.8216 7.9782,6.4476 9.6662,6.4386 C11.3542,6.4476 12.7252,7.8216 12.7252,9.5116 C12.7252,11.2006 11.3542,12.5756 9.6662,12.5836 C7.9782,12.5756 6.6072,11.2006 6.6072,9.5116 M9.6822,4.8936 C9.6762,4.8936 9.6712,4.8956 9.6662,4.8956 C9.6612,4.8956 9.6562,4.8936 9.6502,4.8936 C7.1042,4.8936 5.0332,6.9646 5.0332,9.5116 C5.0332,12.0576 7.1042,14.1286 9.6502,14.1286 C9.6562,14.1286 9.6612,14.1266 9.6662,14.1266 C9.6712,14.1266 9.6762,14.1286 9.6822,14.1286 C12.2282,14.1286 14.2992,12.0576 14.2992,9.5116 C14.2992,6.9646 12.2282,4.8936 9.6822,4.8936" id="Fill-50"></path>
                    <path d="M16.094,15.91 C16.077,15.932 16.054,15.946 16.04,15.972 L15.971,16.089 C15.958,16.11 15.958,16.135 15.948,16.157 C15.591,16.755 15.204,17.327 14.796,17.872 C14.78,17.889 14.759,17.898 14.745,17.917 C12.865,20.419 10.618,22.304 9.666,23.052 C8.714,22.304 6.467,20.419 4.588,17.917 C4.573,17.898 4.552,17.889 4.537,17.872 C4.129,17.327 3.742,16.755 3.385,16.157 C3.374,16.135 3.374,16.11 3.361,16.089 L3.293,15.972 C3.279,15.946 3.255,15.932 3.239,15.91 C2.916,15.348 2.63,14.768 2.384,14.172 C2.376,14.146 2.38,14.121 2.369,14.096 C1.842,12.789 1.574,11.508 1.574,10.288 C1.574,5.472 5.203,1.553 9.666,1.544 C14.13,1.553 17.758,5.472 17.758,10.288 C17.758,11.508 17.49,12.789 16.963,14.096 C16.953,14.121 16.956,14.146 16.948,14.172 C16.702,14.768 16.416,15.348 16.094,15.91 M9.682,3.19744231e-14 C9.677,3.19744231e-14 9.672,0.001 9.666,0.001 C9.661,0.001 9.656,3.19744231e-14 9.651,3.19744231e-14 C4.329,3.19744231e-14 0,4.615 0,10.288 C0,13.551 1.559,16.969 4.633,20.447 C6.885,22.995 9.109,24.595 9.202,24.661 C9.336,24.757 9.493,24.805 9.651,24.805 C9.656,24.805 9.661,24.803 9.666,24.803 C9.672,24.803 9.677,24.805 9.682,24.805 C9.839,24.805 9.996,24.757 10.13,24.661 C10.224,24.595 12.448,22.995 14.699,20.447 C17.774,16.969 19.332,13.551 19.332,10.288 C19.332,4.615 15.003,3.19744231e-14 9.682,3.19744231e-14" id="Fill-52"></path>
                </g>
            </g>
        </g>
    </g>
</svg>