<svg xmlns="http://www.w3.org/2000/svg" xml:space="preserve" id="Layer_1" version="1.1" viewBox="0 0 512 512">
  <path d="M203.9 418H385c6.2 0 8.8-2.2 9.7-8.5.3-2.1.4-4.3.4-6.4 0-65.5 0-130.9.1-196.4 0-2.5-.8-4.2-2.7-5.8C379 189 365.7 177 352.3 165c-4.5-4.1-6.8-6-11.3-10.1M325.4 142c-.7-.6.7.7 0 0m-14.5-14.1c-13.6-12.2-24.5-21.7-38.2-34-.7.6-1.2.9-1.7 1.3-39.3 35.1-78.6 70.2-117.8 105.3-1.2 1.1-2.1 3.2-2.1 4.8 0 21.8-.1 43.7-.1 65.5" class="st0" style="fill:none;stroke:#000000;stroke-width:30;width:70px;height:70px" />
  <path d="M151.1 301.9v108.2c0 6.3 1.9 8.1 8.2 8.1h52.4" class="st0" style="fill:none;stroke:#000000;stroke-width:30;width:70px;height:70px" />
</svg>