<?xml version="1.0" encoding="UTF-8"?>
<svg width="31px" height="26px" viewBox="0 0 31 26" version="1.1" xmlns="http://www.w3.org/2000/svg" xmlns:xlink="http://www.w3.org/1999/xlink">
    <title>kalp</title>
    <g id="Page-1" stroke="none" stroke-width="1" fill="none" fill-rule="evenodd">
        <g id="estetikvitrini_mobiluygulama_düşükkalite_siyah" transform="translate(-101.000000, -776.000000)" fill="#352A4D">
            <g id="Group-76" transform="translate(0.000000, 35.000000)">
                <g id="kalp" transform="translate(101.207000, 741.268734)">
                    <path d="M8.479,1.55546613 C6.453,1.65546613 4.924,2.28146613 3.669,3.50446613 C2.119,5.01546613 1.403,6.86646613 1.556,9.03346613 C1.64,10.2084661 2.073,11.2784661 2.643,12.2944661 C3.619,14.0374661 4.949,15.4954661 6.389,16.8564661 C8.933,19.2604661 11.785,21.2514661 14.772,23.0574661 C14.908,23.1384661 15.004,23.1454661 15.139,23.0584661 C16.203,22.3774661 17.291,21.7314661 18.335,21.0214661 C20.82,19.3304661 23.157,17.4614661 25.166,15.2094661 C26.26,13.9834661 27.212,12.6654661 27.842,11.1344661 C28.434,9.69346613 28.557,8.21446613 28.147,6.71146613 C27.713,5.11946613 26.836,3.81046613 25.475,2.86446613 C23.316,1.36146613 21.005,1.14346613 18.59,2.16246613 C17.417,2.65946613 16.481,3.46446613 15.744,4.50546613 C15.235,5.22446613 14.693,5.21146613 14.159,4.50546613 C13.889,4.15046613 13.613,3.79146613 13.294,3.48346613 C11.876,2.11346613 10.158,1.52046613 8.479,1.55546613 L8.479,1.55546613 Z M7.10542736e-15,7.74346613 C0.076,7.35446613 0.134,6.96046613 0.23,6.57646613 C0.913,3.84046613 2.535,1.84846613 5.118,0.745466128 C7.887,-0.436533872 10.608,-0.217533872 13.154,1.43546613 C13.808,1.86046613 14.372,2.42346613 14.996,2.93846613 C15.289,2.66246613 15.617,2.31946613 15.98,2.01946613 C17.94,0.399466128 20.19,-0.249533872 22.699,0.147466128 C25.768,0.632466128 27.951,2.34546613 29.214,5.16446613 C30.179,7.31946613 30.15,9.52346613 29.244,11.7064661 C28.355,13.8464661 26.948,15.6264661 25.333,17.2494661 C22.401,20.1954661 19.041,22.5714661 15.447,24.6324661 C15.145,24.8054661 14.863,24.8614661 14.544,24.6764661 C10.713,22.4554661 7.135,19.9024661 4.076,16.6754661 C2.676,15.2004661 1.442,13.5934661 0.687,11.6844661 C0.405,10.9684661 0.266,10.1964661 0.06,9.45046613 C0.042,9.38746613 0.02,9.32646613 7.10542736e-15,9.26346613 L7.10542736e-15,7.74346613 Z" id="Fill-46"></path>
                </g>
            </g>
        </g>
    </g>
</svg>