<?xml version="1.0" encoding="UTF-8"?>
<svg width="33px" height="33px" viewBox="0 0 33 33" version="1.1" xmlns="http://www.w3.org/2000/svg" xmlns:xlink="http://www.w3.org/1999/xlink">
    <title>takvim</title>
    <g id="Page-1" stroke="none" stroke-width="1" fill="none" fill-rule="evenodd">
        <g id="estetikvitrini_mobiluygulama_düşükkalite_siyah" transform="translate(-170.000000, -771.000000)" fill="#352A4D">
            <g id="Group-76" transform="translate(0.000000, 35.000000)">
                <g id="takvim" transform="translate(170.035900, 736.384000)">
                    <path d="M29.719,7.699 L3.726,7.699 C3.724,7.541 3.722,7.384 3.719,7.227 C3.711,6.718 3.703,6.236 3.737,5.756 C3.789,5.017 4.325,4.463 5.071,4.374 C5.446,4.329 5.839,4.329 6.219,4.329 C6.363,4.329 6.507,4.328 6.65,4.326 C6.924,4.321 7.195,4.323 7.481,4.324 L7.645,4.324 L7.645,4.341 C7.644,4.504 7.643,4.655 7.647,4.806 C7.677,6.005 8.549,6.905 9.677,6.905 L9.687,6.905 C10.944,6.899 11.715,5.909 11.734,4.954 C11.738,4.762 11.737,4.57 11.736,4.378 L11.736,4.341 L21.455,4.341 C21.457,4.386 21.459,4.433 21.462,4.479 C21.473,4.731 21.485,4.992 21.526,5.248 C21.683,6.213 22.603,6.958 23.572,6.909 C24.628,6.855 25.458,6.081 25.544,5.068 C25.562,4.853 25.572,4.643 25.582,4.422 C25.584,4.392 25.585,4.362 25.586,4.333 C25.785,4.333 25.983,4.332 26.18,4.331 C26.907,4.328 27.594,4.326 28.296,4.342 C28.492,4.345 28.716,4.405 28.927,4.509 C29.543,4.811 29.829,5.333 29.829,6.149 C29.829,6.667 29.829,7.184 29.829,7.703 C29.793,7.702 29.754,7.698 29.719,7.699 L29.719,7.699 Z M9.338,2.061 C9.34,1.937 9.384,1.829 9.462,1.756 C9.525,1.697 9.606,1.666 9.692,1.666 L9.711,1.666 C9.928,1.678 10.065,1.846 10.069,2.107 C10.073,2.422 10.072,2.743 10.071,3.053 C10.071,3.19 10.07,3.328 10.07,3.466 C10.07,3.599 10.071,3.733 10.071,3.867 C10.072,4.171 10.073,4.485 10.069,4.794 C10.067,4.95 10.018,5.213 9.716,5.221 C9.636,5.224 9.525,5.21 9.444,5.133 C9.376,5.067 9.339,4.966 9.337,4.838 C9.323,3.929 9.323,2.996 9.338,2.061 L9.338,2.061 Z M23.16,2.07 C23.162,1.943 23.206,1.832 23.284,1.758 C23.347,1.697 23.43,1.665 23.518,1.665 L23.53,1.665 C23.742,1.672 23.887,1.846 23.891,2.098 C23.896,2.413 23.895,2.732 23.894,3.043 C23.893,3.18 23.893,3.319 23.893,3.457 L23.894,3.852 C23.895,4.164 23.896,4.474 23.892,4.786 C23.89,4.943 23.842,5.209 23.544,5.22 C23.465,5.223 23.352,5.212 23.271,5.136 C23.199,5.067 23.16,4.957 23.158,4.816 C23.145,3.911 23.146,2.987 23.16,2.07 L23.16,2.07 Z M2.713,29.828 C2.637,29.828 2.565,29.829 2.498,29.822 C2.206,29.789 1.837,29.667 1.739,29.267 C1.673,29.001 1.662,28.714 1.651,28.409 C1.648,28.346 1.646,28.283 1.643,28.22 L26.395,28.22 L26.555,29.828 L2.713,29.828 Z M3.25,20.494 C3.92,19.833 4.803,19.47 5.726,19.483 C7.668,19.502 9.238,21.099 9.225,23.044 C9.213,24.98 7.637,26.553 5.71,26.553 L5.703,26.553 C4.768,26.552 3.886,26.181 3.221,25.512 C2.552,24.84 2.186,23.95 2.1889817,23.006 C2.193,22.057 2.57,21.165 3.25,20.494 L3.25,20.494 Z M31.484,5.883 C31.483,4.148 30.01,2.676 28.266,2.668 C27.719,2.666 27.173,2.667 26.626,2.667 C26.303,2.667 25.981,2.668 25.658,2.667 C25.626,2.667 25.594,2.666 25.557,2.664 C25.558,2.636 25.559,2.606 25.559,2.578 C25.563,2.363 25.568,2.14 25.551,1.92 C25.482,0.994 24.984,0.373 24.071,0.074 C24.056,0.069 24.034,0.057 24.012,0.046 C23.996,0.038 23.979,0.029 23.963,0.021 L23.917,-4.97379915e-14 L23.081,-4.97379915e-14 L23.03,0.028 C22.944,0.077 22.856,0.121 22.768,0.166 C22.558,0.273 22.341,0.384 22.151,0.541 C21.713,0.903 21.484,1.429 21.469,2.107 C21.466,2.28 21.467,2.452 21.468,2.63 L21.468,2.652 L11.735,2.652 L11.736,2.576 C11.74,2.36 11.744,2.137 11.728,1.916 C11.659,0.993 11.161,0.373 10.248,0.074 C10.233,0.069 10.212,0.058 10.189,0.046 C10.173,0.038 10.157,0.029 10.14,0.021 L10.094,-4.97379915e-14 L9.257,-4.97379915e-14 L9.206,0.029 C9.19,0.038 9.174,0.048 9.158,0.058 C9.145,0.067 9.126,0.079 9.12,0.081 C8.198,0.404 7.676,1.113 7.647,2.079 C7.642,2.259 7.643,2.436 7.645,2.625 L7.645,2.668 C7.447,2.668 7.251,2.667 7.055,2.667 C6.419,2.665 5.818,2.664 5.205,2.671 C4.525,2.678 3.896,2.903 3.336,3.339 C2.476,4.008 2.042,4.936 2.045,6.098 C2.052,8.402 2.051,10.746 2.05,13.011 C2.049,14.011 2.049,15.01 2.049,16.01 C2.049,16.121 2.049,16.247 2.067,16.372 C2.121,16.761 2.435,17.048 2.83,17.068 C3.072,17.081 3.284,17.011 3.441,16.862 C3.62,16.692 3.715,16.434 3.716,16.116 C3.717,14.478 3.717,12.84 3.717,11.202 L3.717,9.356 L29.829,9.349 C29.828,13.341 29.828,17.332 29.828,21.323 L29.828,25.941 C29.828,26.232 29.829,26.522 29.829,26.813 C29.831,27.491 29.832,28.191 29.825,28.88 C29.823,29.163 29.722,29.416 29.541,29.592 C29.384,29.745 29.173,29.83 28.951,29.824 C28.456,29.815 28.103,29.429 28.092,28.885 C28.087,28.607 28.088,28.324 28.089,28.051 C28.09,27.926 28.091,27.801 28.091,27.677 C28.091,26.828 27.821,26.555 26.983,26.555 L9.537,26.555 C10.699,25.235 10.922,23.862 10.892,22.905 C10.846,21.442 10.171,19.981 9.13,19.094 C7.13,17.389 4.149,17.426 2.196,19.179 C1.173,20.096 0.548,21.511 0.522,22.961 C0.506,23.906 0.741,25.261 1.887,26.559 C1.603,26.562 1.333,26.563 1.063,26.551 C0.586,26.53 0.237,26.711 0.027,27.094 L-1.42108547e-14,27.144 L-1.42108547e-14,29.423 L0.013,29.46 C0.204,29.984 0.433,30.528 0.934,30.918 C1.384,31.268 1.884,31.459 2.422,31.482 C2.475,31.485 2.53,31.485 2.583,31.485 L8.934,31.485 L15.278,31.485 C19.816,31.485 24.356,31.485 28.894,31.484 C30.102,31.484 31.085,30.747 31.398,29.607 C31.454,29.4 31.482,29.165 31.482,28.889 C31.487,20.665 31.487,13.139 31.484,5.883 L31.484,5.883 Z" id="Fill-62"></path>
                    <path d="M7.98269324,14.6551 C7.9817,14.4021 8.0917,14.1481 8.2857,13.9591 C8.4757,13.7721 8.7257,13.6701 8.9717,13.6761 C9.4907,13.6881 9.9397,14.1481 9.9317,14.6601 C9.9227,15.1761 9.4687,15.6281 8.9577,15.6281 L8.9537,15.6281 C8.4397,15.6251 7.9857,15.1711 7.98269324,14.6551 L7.98269324,14.6551 Z M8.9537,17.0661 C9.5947,17.0661 10.1997,16.8161 10.6577,16.3621 C11.1177,15.9061 11.3727,15.3021 11.3757112,14.6611 C11.3797,13.3381 10.3097,12.2501 8.9887,12.2371 C8.3417,12.2271 7.7257,12.4761 7.2637,12.9301 C6.8057,13.3821 6.5497,13.9841 6.54565236,14.6271 C6.5417,15.2781 6.7897,15.8901 7.2447,16.3511 C7.6957,16.8081 8.2977,17.0621 8.9397,17.0661 L8.9537,17.0661 Z" id="Fill-64"></path>
                    <path d="M15.5149,14.6521 C15.5149,14.1281 15.9539,13.6801 16.4759,13.6741 L16.4859,13.6741 C16.7359,13.6741 16.9739,13.7751 17.1579,13.9591 C17.3459,14.1461 17.4519,14.4041 17.4499,14.6641 C17.4449,15.1881 17.0029,15.6281 16.4849,15.6281 L16.4779,15.6281 C15.9569,15.6241 15.5159,15.1771 15.5149,14.6521 L15.5149,14.6521 Z M16.4829,17.0661 C17.1299,17.0651 17.7369,16.8121 18.1919,16.3531 C18.6479,15.8951 18.8969,15.2881 18.8929475,14.6421 C18.8869,13.3131 17.8039,12.2371 16.4769,12.2371 L16.4659,12.2371 C15.1449,12.2431 14.0649,13.3231 14.0578734,14.6441 C14.0549,15.2801 14.3059,15.8841 14.7639,16.3451 C15.2259,16.8101 15.8359,17.0661 16.4809,17.0661 L16.4829,17.0661 Z" id="Fill-66"></path>
                    <path d="M16.4773,19.9803 L16.4843,19.9803 C17.0033,19.9803 17.4443,20.4183 17.4493,20.9433 C17.4523,21.2033 17.3463,21.4593 17.1583,21.6483 C16.9743,21.8323 16.7363,21.9323 16.4853,21.9323 L16.4763,21.9323 C15.9553,21.9273 15.5153,21.4803 15.5153,20.9563 C15.5153,20.4313 15.9563,19.9843 16.4773,19.9803 M14.7563,22.6423 C15.2193,23.1113 15.8303,23.3703 16.4763,23.3713 L16.4793,23.3713 C17.1243,23.3713 17.7313,23.1203 18.1863,22.6653 C18.6433,22.2093 18.8943,21.6013 18.893303,20.9553 C18.893303,20.3073 18.6413,19.7013 18.1843,19.2453 C17.7283,18.7923 17.1233,18.5423 16.4793,18.5423 L16.4733,18.5423 C15.1563,18.5443 14.0733,19.6223 14.0583,20.9413 C14.0513,21.5753 14.2993,22.1793 14.7563,22.6423" id="Fill-68"></path>
                    <path d="M23.6081,14.6775 C23.6041,14.4065 23.7041,14.1535 23.8901,13.9625 C24.0691,13.7785 24.3091,13.6755 24.5651,13.6735 L24.5721,13.6735 C24.8211,13.6735 25.0581,13.7735 25.2401,13.9555 C25.4241,14.1395 25.5271,14.3815 25.5291,14.6395 C25.5311,14.9075 25.4271,15.1605 25.2361,15.3505 C25.0561,15.5305 24.8211,15.6285 24.5741,15.6285 C24.5701,15.6285 24.5661,15.6285 24.5621,15.6275 C24.0441,15.6205 23.6161,15.1955 23.6081,14.6775 L23.6081,14.6775 Z M24.5681,17.0655 C25.2111,17.0655 25.8191,16.8125 26.2801,16.3525 C26.7411,15.8945 26.9951027,15.2895 26.9951027,14.6525 C26.9971,13.3535 25.8971,12.2465 24.5941,12.2375 L24.5761,12.2375 C23.2621,12.2375 22.1741,13.3085 22.1481,14.6325 C22.1351,15.2595 22.3791,15.8605 22.8331,16.3245 C23.2911,16.7935 23.9211,17.0645 24.5611,17.0655 L24.5681,17.0655 Z" id="Fill-70"></path>
                    <path d="M23.8943,20.2635 C24.0753,20.0795 24.3153,19.9795 24.5693,19.9795 L24.5703,19.9795 C25.0963,19.9795 25.5263,20.4145 25.5293072,20.9505 C25.5313,21.4905 25.1153,21.9215 24.5813,21.9325 C24.3343,21.9355 24.0943,21.8415 23.9083,21.6605 C23.7203,21.4805 23.6113,21.2305 23.6083,20.9775 C23.6043,20.7065 23.7063,20.4525 23.8943,20.2635 M24.5573,23.3705 L24.5673,23.3705 C25.8983,23.3705 26.9873,22.2915 26.9953471,20.9615 C26.9993,20.3285 26.7483,19.7265 26.2903,19.2655 C25.8253,18.7985 25.2143,18.5415 24.5693,18.5415 L24.5663,18.5415 C23.9283,18.5425 23.2993,18.8095 22.8423,19.2735 C22.3863,19.7365 22.1393,20.3375 22.1473,20.9685 C22.1653,22.2875 23.2463,23.3655 24.5573,23.3705" id="Fill-72"></path>
                    <path d="M4.1584,24.5252 C4.2334,24.5992 4.3094,24.6732 4.3844,24.7482 C4.6164,24.9782 4.8264,25.0932 5.0364,25.0932 C5.2444,25.0932 5.4514,24.9802 5.6794,24.7542 C6.3954,24.0412 7.1094,23.3262 7.8224,22.6102 C7.9034,22.5292 7.9864,22.4392 8.0514,22.3352 C8.1894,22.1092 8.1914,21.8262 8.0544,21.5952 C7.9284,21.3812 7.7104,21.2602 7.4684,21.2732 C7.2574,21.2832 7.0054,21.4012 6.8254,21.5732 C6.3664,22.0102 5.9264,22.4572 5.4604,22.9292 C5.3154,23.0772 5.1684,23.2252 5.0184,23.3772 C4.9814,23.3352 4.9444,23.2932 4.9074,23.2512 C4.7664,23.0922 4.6344,22.9432 4.4874,22.8002 C4.1114,22.4372 3.7724,22.5262 3.5544,22.6652 C3.3624,22.7872 3.2424,22.9642 3.2174,23.1672 C3.1884,23.3902 3.2754,23.6222 3.4624,23.8212 C3.6884,24.0622 3.9274,24.2972 4.1584,24.5252" id="Fill-74"></path>
                </g>
            </g>
        </g>
    </g>
</svg>