<?xml version="1.0" encoding="UTF-8"?>
<svg width="64px" height="60px" viewBox="0 0 64 60" version="1.1" xmlns="http://www.w3.org/2000/svg" xmlns:xlink="http://www.w3.org/1999/xlink">
    <title>heart</title>
    <g id="Page-1" stroke="none" stroke-width="1" fill="none" fill-rule="evenodd">
        <g id="heart">
            <path d="M43.185,0 C37.611,0 34.369,2.139 32,5.011 C29.631,2.139 26.389,0 20.815,0 C9.338,0 0,8.876 0,19.787 C0,22.744 0.851,27.122 2.718,29.749 C8.865,38.386 28.338,57.99 29.164,58.821 C29.915,59.575 30.936,60 32,60 C33.064,60 34.084,59.576 34.836,58.821 C35.661,57.99 55.135,38.386 61.28,29.751 C63.148,27.127 64,22.746 64,19.787 C64,8.876 54.662,0 43.185,0 Z M58.021,27.432 C51.996,35.898 32,56 32,56 C32,56 12.004,35.898 5.978,27.432 C4.69,25.621 4,22.105 4,19.787 C4,11.066 11.526,4 20.815,4 C27.242,4 29.17,7.388 32,12.363 C34.829,7.388 36.757,4 43.185,4 C52.472,4 60,11.066 60,19.787 C60,22.105 59.311,25.621 58.021,27.432 Z" id="Shape" fill="#000000" fill-rule="nonzero"></path>
            <path d="M32,55.2130734 C33.0921696,55.938908 33.6916662,54.417412 34.8418441,53.4899698 C37.174297,51.609204 40.294264,48.26532 44.037973,43.7116755 C47.9357626,38.9706158 53.1542096,34.3343891 56.4674026,29.6558637 C57.5322394,28.1522188 58.5834435,26.7867713 59.198252,25.306906 C60.1178076,23.0935043 60.3322721,20.8334021 60.3322721,19.151668 C60.3322721,13.7242138 54.6688164,6.93305922 49.5295483,5.2634063 C46.8797993,4.40255197 43.3827961,3.39700476 40.681,4 C37.6917604,4.66714778 35.4736156,7 32,7 C29.0821317,7 26.5814345,4.4030454 22.7822248,4 C19.2853386,3.62902709 17.1685843,4.11653737 14.0264544,5.2634063 C12.1024008,5.96568064 9.09819167,7.38684794 8.2676203,8.43185818 C6.94526974,10.0956163 5.11997702,12.8071028 4.41984341,16.6786157 C3.56867202,21.3853188 4.27756433,27.4730203 8.2676203,31.2406035 C16.4035311,38.922882 24.5374347,50.2535979 32,55.2130734 Z" id="Oval" fill="#4D4D4D"></path>
            <path d="M47.062,11.177 C47.441,11.177 47.804,10.961 47.972,10.594 C48.202,10.092 47.982,9.498 47.48,9.268 C45.667,8.436 43.715,8.015 41.681,8.015 C41.128,8.015 40.681,8.463 40.681,9.015 C40.681,9.567 41.128,10.015 41.681,10.015 C43.425,10.015 45.096,10.375 46.646,11.086 C46.78,11.147 46.923,11.177 47.062,11.177 Z" id="Path" fill="#000000" fill-rule="nonzero"></path>
            <path d="M50.632,12.584 C50.212,12.942 50.161,13.573 50.519,13.994 C52.123,15.876 52.969,18.143 52.969,20.551 C52.969,22.107 52.488,24.463 51.709,25.557 C50.621,27.084 48.769,29.313 46.202,32.182 C45.834,32.593 45.869,33.226 46.28,33.594 C46.471,33.765 46.71,33.849 46.947,33.849 C47.221,33.849 47.495,33.737 47.692,33.516 C50.308,30.591 52.208,28.305 53.338,26.717 C54.409,25.212 54.969,22.476 54.969,20.551 C54.969,17.703 53.93,14.914 52.042,12.697 C51.683,12.276 51.053,12.228 50.632,12.584 Z" id="Path" fill="#000000" fill-rule="nonzero"></path>
        </g>
    </g>
</svg>