<?xml version="1.0" encoding="UTF-8"?>
<svg width="60px" height="63px" viewBox="0 0 60 63" version="1.1" xmlns="http://www.w3.org/2000/svg" xmlns:xlink="http://www.w3.org/1999/xlink">
    <title>home</title>
    <g id="Page-1" stroke="none" stroke-width="1" fill="none" fill-rule="evenodd">
        <g id="home" transform="translate(0.003011, 0.097000)" fill="#000000" fill-rule="nonzero">
            <path d="M59.7789886,25.7 C60.4099886,22.999 59.9539886,18.975 54.1979886,15.158 L32.5659886,
            0.877 C32.5609886,0.873 32.5549886,0.868 32.5499886,
            0.864 C31.8479886,0.316 30.9899886,0.014 30.1179886,
            0.003 C30.0629886,0.001 30.0099886,3.55271368e-15 29.9549886,
            3.55271368e-15 C29.0719886,3.55271368e-15 28.2039886,0.293 27.4929886,
            0.848 C27.4509886,0.88 27.4089886,0.914 27.3689886,
            0.949 L14.5789886,9.393 L8.57998864,13.354 L5.85298864,
            15.154 C5.76898864,15.209 5.68798864,15.267 5.60898864,
            15.329 L5.48998864,15.421 C2.31598864,17.878 -0.966011355,20.418 0.264988645,
            25.7 C0.996988645,28.833 3.32898864,30.806 6.57998864,31.156 L6.57998864,
            58.486 L2.86698864,58.486 C1.76298864,58.486 0.866988645,59.382 0.866988645,
            60.486 C0.866988645,61.59 1.76298864,62.486 2.86698864,62.486 L8.86698864,
            62.486 L25.7429886,62.486 L34.4169886,62.486 L51.8669886,62.486 L56.8669886,
            62.486 C57.9709886,62.486 58.8669886,61.59 58.8669886,
            60.486 C58.8669886,59.382 57.9709886,58.486 56.8669886,
            58.486 L53.5799886,58.486 L53.5799886,
            31.149 C56.7729886,30.765 59.0579886,28.797 59.7789886,
            25.7 Z M4.16098864,24.792 C3.50398864,21.973 4.83398864,20.842 7.86898864,
            18.492 L29.5789886,4.034 L29.5789886,
            4 L30.0789886,4.017 L30.5789886,
            4 L30.5789886,4.034 L52.2309886,
            18.492 C54.2659886,19.842 56.6639886,21.972 56.0049886,
            24.792 C55.5739886,26.642 54.1539886,27.23 52.4789886,
            27.23 C51.6009886,27.23 50.6029886,27.069 49.6369886,
            26.842 L30.0359886,14.842 L10.4439886,
            26.842 C9.47698864,27.069 8.50698864,27.23 7.62898864,
            27.23 C5.95398864,27.229 4.59298864,26.641 4.16098864,24.792 Z M22.5799886,57.323 L22.5799886,45.649 C22.5799886,43.902 23.9959886,42.486 25.7429886,42.486 L34.4169886,42.486 C36.1639886,42.486 37.5799886,43.902 37.5799886,45.649 L37.5799886,57.323 C37.5799886,57.735 37.4959886,58.126 37.3519886,58.486 L22.8079886,58.486 C22.6639886,58.126 22.5799886,57.735 22.5799886,57.323 Z M39.4369886,58.486 C39.5229886,58.111 39.5799886,57.724 39.5799886,57.323 L39.5799886,45.649 C39.5799886,42.797 37.2679886,40.486 34.4169886,40.486 L25.7429886,40.486 C22.8909886,40.486 20.5799886,42.798 20.5799886,45.649 L20.5799886,57.323 C20.5799886,57.724 20.6359886,58.111 20.7229886,58.486 L10.5799886,58.486 L10.5799886,30.899 C10.8319886,30.849 11.0839886,30.799 11.3499886,30.736 C11.7659886,30.638 12.1629886,30.475 12.5279886,30.253 L30.0229886,19.533 L47.5189886,30.253 C47.8829886,30.476 48.2809886,30.639 48.6959886,30.736 C49.0019886,30.807 49.2939886,30.867 49.5809886,30.923 L49.5809886,58.486 L39.4369886,58.486 Z" id="Shape"></path>
            <path d="M25.8669886,31.486 L34.8669886,31.486 C35.4199886,31.486 35.8669886,31.039 35.8669886,30.486 C35.8669886,29.933 35.4199886,29.486 34.8669886,29.486 L25.8669886,29.486 C25.3139886,29.486 24.8669886,29.933 24.8669886,30.486 C24.8669886,31.039 25.3139886,31.486 25.8669886,31.486 Z" id="Path"></path>
            <path d="M37.8669886,33.486 L22.8669886,33.486 C22.3139886,33.486 21.8669886,33.933 21.8669886,34.486 C21.8669886,35.039 22.3139886,35.486 22.8669886,35.486 L37.8669886,35.486 C38.4199886,35.486 38.8669886,35.039 38.8669886,34.486 C38.8669886,33.933 38.4199886,33.486 37.8669886,33.486 Z" id="Path"></path>
        </g>
    </g>
</svg>