<?xml version="1.0" encoding="UTF-8"?>
<svg width="64px" height="64px" viewBox="0 0 64 64" version="1.1" xmlns="http://www.w3.org/2000/svg" xmlns:xlink="http://www.w3.org/1999/xlink">
    <title>star</title>
    <g id="Page-1" stroke="none" stroke-width="1" fill="none" fill-rule="evenodd">
        <g id="star" transform="translate(0.498769, 0.500000)" fill-rule="nonzero">
            <path d="M61.8322314,27.668 C62.8982314,26.6 63.2722314,25.022 62.7992314,23.588 C62.3262314,22.154 61.0852314,21.109 59.5922314,20.886 L42.8642314,18.386 C42.6522314,18.354 42.4702314,18.234 42.3852314,18.069 L35.1332314,2.327 C34.4802314,0.908 33.0622314,0 31.5002314,0 C29.9382314,0 28.5202314,0.909 27.8662314,2.327 L20.6172314,18.07 C20.5312314,18.235 20.3492314,18.355 20.1382314,18.386 L3.40923145,20.886 C1.91623145,21.109 0.675231449,22.154 0.202231449,23.588 C-0.271768551,25.022 0.102231449,26.6 1.16923145,27.669 L13.4272314,39.948 C13.5302314,40.051 13.5812314,40.177 13.5752314,40.303 L9.58423145,58.125 C9.23423145,59.687 9.84923145,61.306 11.1472314,62.242 C11.8432314,62.745 12.6652314,62.999 13.4882314,62.999 C14.1992314,62.999 14.9112314,62.81 15.5472314,62.429 L31.1992314,53.034 C31.2942314,52.991 31.3972314,52.969 31.5002314,52.969 C31.6122314,52.969 31.7262314,52.995 31.8262314,53.045 L48.4072314,62.476 C49.0232314,62.827 49.7052314,62.999 50.3842314,62.999 C51.2542314,62.999 52.1192314,62.716 52.8372314,62.159 C54.1132314,61.169 54.6692314,59.507 54.2442314,57.947 L49.4262314,40.262 C49.4322314,40.149 49.4842314,40.038 49.5722314,39.949 L61.8322314,27.668 Z M45.4852314,41.019 L50.3852314,59 L33.7462314,49.536 C33.0462314,49.159 32.2732314,48.97 31.5002314,48.97 C30.7292314,48.97 29.9562314,49.159 29.2562314,49.536 L13.4882314,59 L17.5152314,41.019 C17.7542314,39.599 17.2872314,38.152 16.2582314,37.123 L4.00123145,24.843 L20.7292314,22.343 C22.2562314,22.115 23.5732314,21.155 24.2302314,19.788 L31.5002314,4 L38.7722314,19.788 C39.4292314,21.155 40.7442314,22.115 42.2732314,22.343 L59.0012314,24.843 L46.7442314,37.122 C45.7152314,38.151 45.2482314,39.599 45.4852314,41.019 Z" id="Shape" fill="#000000"></path>
            <polygon id="Star" fill="#4D4D4D" points="31.5012314 49.5 13.6778184 58.7705098 17.710912 39.1352549 3.29984015 24.843 22.2307702 22.3153339 31.5012314 4.5 40.7252493 22.3153339 59.0012314 24.843 45.2915509 39.1352549 50.3852314 59"></polygon>
            <path d="M30.3082314,16.471 C29.8222314,16.207 29.2152314,16.384 28.9512314,16.87 L25.0922314,23.94 C24.7452314,24.661 24.0532314,25.164 23.2402314,25.285 L16.4932314,26.293 C15.9462314,26.375 15.5702314,26.884 15.6512314,27.43 C15.7252314,27.926 16.1522314,28.282 16.6392314,28.282 C16.6882314,28.282 16.7382314,28.279 16.7872314,28.271 L23.5342314,27.263 C25.0032314,27.043 26.2582314,26.125 26.8702314,24.852 L30.7062314,17.827 C30.9712314,17.343 30.7922314,16.736 30.3082314,16.471 Z" id="Path" fill="#000000"></path>
            <path d="M31.8182314,11.72 C31.3132314,11.486 30.7212314,11.709 30.4922314,12.21 L29.7672314,13.784 C29.5362314,14.285 29.7552314,14.879 30.2572314,15.11 C30.3932314,15.173 30.5342314,15.202 30.6742314,15.202 C31.0532314,15.202 31.4152314,14.986 31.5832314,14.62 L32.3082314,13.046 C32.5402314,12.544 32.3202314,11.951 31.8182314,11.72 Z" id="Path" fill="#000000"></path>
        </g>
    </g>
</svg>