<?xml version="1.0" encoding="iso-8859-1"?>
<!-- Generator: Adobe Illustrator 19.0.0, SVG Export Plug-In . SVG Version: 6.00 Build 0)  -->
<svg version="1.1" id="Layer_1" xmlns="http://www.w3.org/2000/svg" xmlns:xlink="http://www.w3.org/1999/xlink" x="0px" y="0px"
	 viewBox="0 0 512 512" style="enable-background:new 0 0 512 512;" xml:space="preserve">
<g>
	<g>
		<path d="M509.013,424.996L385.434,301.417c-2.619-2.618-6.451-3.612-10.012-2.594l-18.405,5.259
			c-1.016,0.291-1.98,0.736-2.859,1.323l-18.929,12.631l-28.19,18.812c-55.074-36.684-102.583-85.248-138.057-141.112l20.563-20.563
			l15.78-15.78c1.226-1.226,2.118-2.742,2.594-4.408l5.259-18.405c1.018-3.561,0.024-7.393-2.594-10.013L87.005,2.987
			C84.178,0.16,79.96-0.754,76.213,0.65L55.179,8.537c-1.362,0.511-2.6,1.308-3.63,2.337c-4.605,4.605-9.035,9.563-13.168,14.737
			c-55.829,69.893-50.168,170.361,13.168,233.696l201.144,201.144c34.169,34.168,79.135,51.551,124.287,51.548
			c38.542-0.002,77.222-12.671,109.409-38.38c5.173-4.133,10.132-8.563,14.737-13.168c1.029-1.03,1.826-2.268,2.337-3.63
			l7.888-21.034C512.755,432.042,511.841,427.824,509.013,424.996z M64.444,26.844l12.782-4.794L191.92,136.744l-2.885,10.095
			l-6.701,6.702L60.192,31.399C61.585,29.846,63.004,28.326,64.444,26.844z M267.114,446.03L65.97,244.886
			C12.715,191.63,5.59,108.675,47.497,47.546l120.417,120.417l-19.079,19.078c-3.33,3.331-3.946,8.509-1.49,12.528
			c38.636,63.224,91.963,117.885,154.213,158.072c3.413,2.204,7.811,2.17,11.192-0.085l26.844-17.914l124.862,124.862
			C403.326,506.41,320.37,499.285,267.114,446.03z M485.157,447.557c-1.482,1.44-3.001,2.857-4.554,4.251l-123.71-123.71l7.26-4.845
			l11.104-3.172L489.95,434.775L485.157,447.557z"/>
	</g>
</g>
<g>
	<g>
		<path d="M287.61,422.993l-75.97-75.971c-3.982-3.982-10.439-3.982-14.422,0c-3.982,3.982-3.982,10.439,0,14.422l75.971,75.971
			c1.992,1.992,4.601,2.987,7.211,2.987s5.22-0.995,7.211-2.987C291.592,433.433,291.592,426.976,287.61,422.993z"/>
	</g>
</g>
<g>
	<g>
		<path d="M183.089,318.471l-5.098-5.099c-3.982-3.982-10.439-3.982-14.422,0c-3.982,3.982-3.982,10.439,0,14.422l5.099,5.099
			c1.992,1.992,4.601,2.987,7.21,2.987s5.22-0.995,7.211-2.987C187.071,328.911,187.071,322.454,183.089,318.471z"/>
	</g>
</g>
<g>
</g>
<g>
</g>
<g>
</g>
<g>
</g>
<g>
</g>
<g>
</g>
<g>
</g>
<g>
</g>
<g>
</g>
<g>
</g>
<g>
</g>
<g>
</g>
<g>
</g>
<g>
</g>
<g>
</g>
</svg>
